<mxfile host="app.diagrams.net" modified="2023-04-29T12:03:35.100Z" agent="Mozilla/5.0 (Macintosh; Intel Mac OS X 10_15_7) AppleWebKit/537.36 (KHTML, like Gecko) Chrome/112.0.0.0 Safari/537.36" etag="GBeU3EKekpfPfUuOzLLh" version="21.2.3" type="device">
  <diagram id="C5RBs43oDa-KdzZeNtuy" name="Page-1">
    <mxGraphModel dx="1676" dy="581" grid="1" gridSize="10" guides="1" tooltips="1" connect="1" arrows="1" fold="1" page="1" pageScale="1" pageWidth="827" pageHeight="1169" math="0" shadow="0">
      <root>
        <mxCell id="WIyWlLk6GJQsqaUBKTNV-0" />
        <mxCell id="WIyWlLk6GJQsqaUBKTNV-1" parent="WIyWlLk6GJQsqaUBKTNV-0" />
        <mxCell id="2dJOLBbKOTv-pol8t2Nl-17" value="&amp;nbsp;Voting&amp;nbsp;Service" style="rounded=0;whiteSpace=wrap;html=1;align=right;" vertex="1" parent="WIyWlLk6GJQsqaUBKTNV-1">
          <mxGeometry x="-90" y="520" width="640" height="380" as="geometry" />
        </mxCell>
        <mxCell id="2dJOLBbKOTv-pol8t2Nl-16" value="&amp;nbsp;Menu Language&lt;br&gt;Selection Service" style="rounded=0;whiteSpace=wrap;html=1;align=right;" vertex="1" parent="WIyWlLk6GJQsqaUBKTNV-1">
          <mxGeometry x="-90" y="150" width="640" height="340" as="geometry" />
        </mxCell>
        <mxCell id="2dJOLBbKOTv-pol8t2Nl-4" value="" style="edgeStyle=orthogonalEdgeStyle;rounded=0;orthogonalLoop=1;jettySize=auto;html=1;" edge="1" parent="WIyWlLk6GJQsqaUBKTNV-1" source="WIyWlLk6GJQsqaUBKTNV-3" target="2dJOLBbKOTv-pol8t2Nl-3">
          <mxGeometry relative="1" as="geometry" />
        </mxCell>
        <mxCell id="WIyWlLk6GJQsqaUBKTNV-3" value="Call the number" style="rounded=1;whiteSpace=wrap;html=1;fontSize=12;glass=0;strokeWidth=1;shadow=0;" parent="WIyWlLk6GJQsqaUBKTNV-1" vertex="1">
          <mxGeometry x="160" y="80" width="120" height="40" as="geometry" />
        </mxCell>
        <mxCell id="uZqd9fqqcg-KaMI8_r-Z-13" value="" style="edgeStyle=orthogonalEdgeStyle;rounded=0;orthogonalLoop=1;jettySize=auto;html=1;" parent="WIyWlLk6GJQsqaUBKTNV-1" source="uZqd9fqqcg-KaMI8_r-Z-8" target="uZqd9fqqcg-KaMI8_r-Z-12" edge="1">
          <mxGeometry relative="1" as="geometry" />
        </mxCell>
        <mxCell id="uZqd9fqqcg-KaMI8_r-Z-17" value="Say or Press 1" style="edgeLabel;html=1;align=center;verticalAlign=middle;resizable=0;points=[];" parent="uZqd9fqqcg-KaMI8_r-Z-13" vertex="1" connectable="0">
          <mxGeometry x="0.1886" y="3" relative="1" as="geometry">
            <mxPoint as="offset" />
          </mxGeometry>
        </mxCell>
        <mxCell id="uZqd9fqqcg-KaMI8_r-Z-15" value="" style="edgeStyle=orthogonalEdgeStyle;rounded=0;orthogonalLoop=1;jettySize=auto;html=1;" parent="WIyWlLk6GJQsqaUBKTNV-1" source="uZqd9fqqcg-KaMI8_r-Z-8" target="uZqd9fqqcg-KaMI8_r-Z-14" edge="1">
          <mxGeometry relative="1" as="geometry" />
        </mxCell>
        <mxCell id="uZqd9fqqcg-KaMI8_r-Z-18" value="Say or Press 2" style="edgeLabel;html=1;align=center;verticalAlign=middle;resizable=0;points=[];" parent="uZqd9fqqcg-KaMI8_r-Z-15" vertex="1" connectable="0">
          <mxGeometry x="0.2324" relative="1" as="geometry">
            <mxPoint as="offset" />
          </mxGeometry>
        </mxCell>
        <mxCell id="uZqd9fqqcg-KaMI8_r-Z-8" value="Press the voting button" style="rhombus;whiteSpace=wrap;html=1;rounded=1;glass=0;strokeWidth=1;shadow=0;" parent="WIyWlLk6GJQsqaUBKTNV-1" vertex="1">
          <mxGeometry x="150" y="530" width="140" height="70" as="geometry" />
        </mxCell>
        <mxCell id="uZqd9fqqcg-KaMI8_r-Z-20" value="" style="edgeStyle=orthogonalEdgeStyle;rounded=0;orthogonalLoop=1;jettySize=auto;html=1;exitX=0.5;exitY=1;exitDx=0;exitDy=0;" parent="WIyWlLk6GJQsqaUBKTNV-1" source="uZqd9fqqcg-KaMI8_r-Z-12" edge="1">
          <mxGeometry relative="1" as="geometry">
            <mxPoint x="220" y="830" as="targetPoint" />
          </mxGeometry>
        </mxCell>
        <mxCell id="uZqd9fqqcg-KaMI8_r-Z-12" value="count of vote yes +1" style="whiteSpace=wrap;html=1;rounded=1;glass=0;strokeWidth=1;shadow=0;" parent="WIyWlLk6GJQsqaUBKTNV-1" vertex="1">
          <mxGeometry x="20" y="670" width="120" height="60" as="geometry" />
        </mxCell>
        <mxCell id="uZqd9fqqcg-KaMI8_r-Z-14" value="&lt;meta charset=&quot;utf-8&quot;&gt;&lt;span style=&quot;color: rgb(0, 0, 0); font-family: Helvetica; font-size: 12px; font-style: normal; font-variant-ligatures: normal; font-variant-caps: normal; font-weight: 400; letter-spacing: normal; orphans: 2; text-align: center; text-indent: 0px; text-transform: none; widows: 2; word-spacing: 0px; -webkit-text-stroke-width: 0px; background-color: rgb(251, 251, 251); text-decoration-thickness: initial; text-decoration-style: initial; text-decoration-color: initial; float: none; display: inline !important;&quot;&gt;count of vote no +1&lt;/span&gt;" style="whiteSpace=wrap;html=1;rounded=1;glass=0;strokeWidth=1;shadow=0;" parent="WIyWlLk6GJQsqaUBKTNV-1" vertex="1">
          <mxGeometry x="310" y="670" width="120" height="60" as="geometry" />
        </mxCell>
        <mxCell id="uZqd9fqqcg-KaMI8_r-Z-24" value="" style="edgeStyle=orthogonalEdgeStyle;rounded=0;orthogonalLoop=1;jettySize=auto;html=1;" parent="WIyWlLk6GJQsqaUBKTNV-1" source="yB4L-ewr2lmScL96qsFM-0" target="uZqd9fqqcg-KaMI8_r-Z-23" edge="1">
          <mxGeometry relative="1" as="geometry">
            <mxPoint x="220" y="910" as="sourcePoint" />
          </mxGeometry>
        </mxCell>
        <mxCell id="uZqd9fqqcg-KaMI8_r-Z-22" value="" style="edgeStyle=orthogonalEdgeStyle;rounded=0;orthogonalLoop=1;jettySize=auto;html=1;exitX=0.5;exitY=1;exitDx=0;exitDy=0;entryX=0.5;entryY=0;entryDx=0;entryDy=0;" parent="WIyWlLk6GJQsqaUBKTNV-1" source="uZqd9fqqcg-KaMI8_r-Z-14" edge="1">
          <mxGeometry relative="1" as="geometry">
            <mxPoint x="90" y="740" as="sourcePoint" />
            <mxPoint x="220" y="830" as="targetPoint" />
          </mxGeometry>
        </mxCell>
        <mxCell id="uZqd9fqqcg-KaMI8_r-Z-23" value="End" style="whiteSpace=wrap;html=1;rounded=1;glass=0;strokeWidth=1;shadow=0;" parent="WIyWlLk6GJQsqaUBKTNV-1" vertex="1">
          <mxGeometry x="160" y="940" width="120" height="60" as="geometry" />
        </mxCell>
        <mxCell id="uZqd9fqqcg-KaMI8_r-Z-27" value="" style="ellipse;html=1;shape=startState;fillColor=#000000;strokeColor=#ff0000;" parent="WIyWlLk6GJQsqaUBKTNV-1" vertex="1">
          <mxGeometry x="205" y="10" width="30" height="30" as="geometry" />
        </mxCell>
        <mxCell id="uZqd9fqqcg-KaMI8_r-Z-28" value="" style="edgeStyle=orthogonalEdgeStyle;html=1;verticalAlign=bottom;endArrow=open;endSize=8;strokeColor=#ff0000;rounded=0;entryX=0.5;entryY=0;entryDx=0;entryDy=0;" parent="WIyWlLk6GJQsqaUBKTNV-1" source="uZqd9fqqcg-KaMI8_r-Z-27" target="WIyWlLk6GJQsqaUBKTNV-3" edge="1">
          <mxGeometry relative="1" as="geometry">
            <mxPoint x="220" y="150" as="targetPoint" />
          </mxGeometry>
        </mxCell>
        <mxCell id="uZqd9fqqcg-KaMI8_r-Z-30" value="" style="ellipse;html=1;shape=endState;fillColor=#000000;strokeColor=#ff0000;" parent="WIyWlLk6GJQsqaUBKTNV-1" vertex="1">
          <mxGeometry x="205" y="1090" width="30" height="30" as="geometry" />
        </mxCell>
        <mxCell id="uZqd9fqqcg-KaMI8_r-Z-31" value="" style="endArrow=classic;html=1;rounded=0;exitX=0.5;exitY=1;exitDx=0;exitDy=0;entryX=0.5;entryY=0;entryDx=0;entryDy=0;" parent="WIyWlLk6GJQsqaUBKTNV-1" source="uZqd9fqqcg-KaMI8_r-Z-23" edge="1">
          <mxGeometry width="50" height="50" relative="1" as="geometry">
            <mxPoint x="320" y="1060" as="sourcePoint" />
            <mxPoint x="220" y="1090" as="targetPoint" />
          </mxGeometry>
        </mxCell>
        <mxCell id="yB4L-ewr2lmScL96qsFM-0" value="Update the data" style="whiteSpace=wrap;html=1;rounded=1;glass=0;strokeWidth=1;shadow=0;" parent="WIyWlLk6GJQsqaUBKTNV-1" vertex="1">
          <mxGeometry x="160" y="830" width="120" height="60" as="geometry" />
        </mxCell>
        <mxCell id="2dJOLBbKOTv-pol8t2Nl-6" value="" style="edgeStyle=orthogonalEdgeStyle;rounded=0;orthogonalLoop=1;jettySize=auto;html=1;" edge="1" parent="WIyWlLk6GJQsqaUBKTNV-1" target="2dJOLBbKOTv-pol8t2Nl-5">
          <mxGeometry relative="1" as="geometry">
            <mxPoint x="150" y="205" as="sourcePoint" />
          </mxGeometry>
        </mxCell>
        <mxCell id="2dJOLBbKOTv-pol8t2Nl-7" value="Say or Press 1" style="edgeLabel;html=1;align=center;verticalAlign=middle;resizable=0;points=[];" vertex="1" connectable="0" parent="2dJOLBbKOTv-pol8t2Nl-6">
          <mxGeometry x="0.2516" y="-4" relative="1" as="geometry">
            <mxPoint as="offset" />
          </mxGeometry>
        </mxCell>
        <mxCell id="2dJOLBbKOTv-pol8t2Nl-9" value="" style="edgeStyle=orthogonalEdgeStyle;rounded=0;orthogonalLoop=1;jettySize=auto;html=1;" edge="1" parent="WIyWlLk6GJQsqaUBKTNV-1" source="2dJOLBbKOTv-pol8t2Nl-3" target="2dJOLBbKOTv-pol8t2Nl-8">
          <mxGeometry relative="1" as="geometry" />
        </mxCell>
        <mxCell id="2dJOLBbKOTv-pol8t2Nl-10" value="Say or Press 2" style="edgeLabel;html=1;align=center;verticalAlign=middle;resizable=0;points=[];" vertex="1" connectable="0" parent="2dJOLBbKOTv-pol8t2Nl-9">
          <mxGeometry x="0.44" y="-1" relative="1" as="geometry">
            <mxPoint as="offset" />
          </mxGeometry>
        </mxCell>
        <mxCell id="2dJOLBbKOTv-pol8t2Nl-3" value="Choose the language" style="rhombus;whiteSpace=wrap;html=1;rounded=1;glass=0;strokeWidth=1;shadow=0;" vertex="1" parent="WIyWlLk6GJQsqaUBKTNV-1">
          <mxGeometry x="150" y="170" width="140" height="70" as="geometry" />
        </mxCell>
        <mxCell id="2dJOLBbKOTv-pol8t2Nl-12" value="" style="edgeStyle=orthogonalEdgeStyle;rounded=0;orthogonalLoop=1;jettySize=auto;html=1;exitX=0.5;exitY=1;exitDx=0;exitDy=0;" edge="1" parent="WIyWlLk6GJQsqaUBKTNV-1" source="2dJOLBbKOTv-pol8t2Nl-5" target="2dJOLBbKOTv-pol8t2Nl-11">
          <mxGeometry relative="1" as="geometry" />
        </mxCell>
        <mxCell id="2dJOLBbKOTv-pol8t2Nl-5" value="Englsih" style="whiteSpace=wrap;html=1;rounded=1;glass=0;strokeWidth=1;shadow=0;" vertex="1" parent="WIyWlLk6GJQsqaUBKTNV-1">
          <mxGeometry x="10" y="290" width="120" height="60" as="geometry" />
        </mxCell>
        <mxCell id="2dJOLBbKOTv-pol8t2Nl-13" value="" style="edgeStyle=orthogonalEdgeStyle;rounded=0;orthogonalLoop=1;jettySize=auto;html=1;entryX=0.5;entryY=0;entryDx=0;entryDy=0;exitX=0.5;exitY=1;exitDx=0;exitDy=0;" edge="1" parent="WIyWlLk6GJQsqaUBKTNV-1" source="2dJOLBbKOTv-pol8t2Nl-8" target="2dJOLBbKOTv-pol8t2Nl-11">
          <mxGeometry relative="1" as="geometry" />
        </mxCell>
        <mxCell id="2dJOLBbKOTv-pol8t2Nl-8" value="French" style="whiteSpace=wrap;html=1;rounded=1;glass=0;strokeWidth=1;shadow=0;" vertex="1" parent="WIyWlLk6GJQsqaUBKTNV-1">
          <mxGeometry x="300" y="290" width="120" height="60" as="geometry" />
        </mxCell>
        <mxCell id="2dJOLBbKOTv-pol8t2Nl-14" value="" style="edgeStyle=orthogonalEdgeStyle;rounded=0;orthogonalLoop=1;jettySize=auto;html=1;" edge="1" parent="WIyWlLk6GJQsqaUBKTNV-1" source="2dJOLBbKOTv-pol8t2Nl-11" target="uZqd9fqqcg-KaMI8_r-Z-8">
          <mxGeometry relative="1" as="geometry" />
        </mxCell>
        <mxCell id="2dJOLBbKOTv-pol8t2Nl-11" value="Start vote" style="whiteSpace=wrap;html=1;rounded=1;glass=0;strokeWidth=1;shadow=0;" vertex="1" parent="WIyWlLk6GJQsqaUBKTNV-1">
          <mxGeometry x="160" y="410" width="120" height="60" as="geometry" />
        </mxCell>
      </root>
    </mxGraphModel>
  </diagram>
</mxfile>
